<svg width="112" height="29" viewBox="0 0 112 29" fill="none" xmlns="http://www.w3.org/2000/svg">
<path opacity="0.5" d="M23.6952 15.0236C23.6952 21.9883 19.0864 27.6343 13.4012 27.6343C7.71596 27.6343 3.10718 21.9883 3.10718 15.0236C3.10718 12.4957 3.026 9.26095 4.07144 7.28739C5.90628 3.82362 9.77949 2.979 13.4012 2.979C17.0229 2.979 21.209 4.07521 23.0438 7.53898C24.0893 9.51253 23.6952 12.4957 23.6952 15.0236Z" fill="white"/>
<path fill-rule="evenodd" clip-rule="evenodd" d="M24.2746 5.33377C25.8486 7.33981 25.1183 11.1792 24.3961 13.0177C24.4028 13.0199 24.4094 13.0221 24.4161 13.0243L24.4013 13.0248L22.649 12.9082C22.649 12.9053 22.6488 12.9013 22.649 12.8993C22.9902 8.93373 22.5975 7.34575 22.2147 7.07677C17.6316 10.3896 13.5379 9.33658 12.2725 9.01111C11.928 8.9225 11.7932 8.88781 11.9152 9.00988C12.2872 9.38185 13.1336 9.82821 13.7371 10.1465L13.7372 10.1465L13.7376 10.1467C13.8743 10.2188 13.9985 10.2843 14.1019 10.3409C9.12673 10.3984 7.12659 8.00279 6.53855 7.29846C6.47859 7.22664 6.4333 7.1724 6.40105 7.14015C6.11408 6.85318 4.49961 5.87252 3.99256 7.74227C3.50142 9.55335 3.81246 11.6775 3.97665 12.7988C3.99089 12.896 3.99257 12.8981 3.99257 12.9298L2.37635 13.0248L2.37213 13.0247C0.223491 8.05534 1.83854 5.26971 3.29536 4.2246C3.29536 1.78444 6.27428 -0.592359 10.0455 0.263262C14.8768 1.64043 16.3468 1.18409 18.0759 0.647278C18.774 0.430562 19.5143 0.200726 20.5351 0.0731239C25.2219 -0.512739 26.7993 2.56612 27 4.16122C26.2141 3.70487 24.8556 4.73165 24.2746 5.33377ZM12.3374 1.5872C11.1225 1.16466 7.99257 0.717209 6.3478 2.41116C5.98397 2.78587 5.55554 3.48864 5.55554 3.48864C5.55554 3.48864 4.82665 4.81961 4.25622 4.24919C3.68579 3.67878 5.0168 1.96749 6.06259 1.46044C7.10838 0.953388 9.70703 0.0660504 12.3374 1.5872Z" fill="#754FFE"/>
<rect x="1.52102" y="13.5003" width="10.141" height="6.40151" rx="1.58453" fill="#E8E2FF" stroke="#754FFE" stroke-width="1.26763"/>
<rect x="0.0316906" y="14.6093" width="1.14086" height="1.71129" rx="0.348597" fill="#754FFE" stroke="#754FFE" stroke-width="0.0633813"/>
<rect x="-0.633813" y="0.633813" width="10.141" height="6.40151" rx="1.58453" transform="matrix(-1 0 0 1 24.6552 12.8665)" fill="#E8E2FF" stroke="#754FFE" stroke-width="1.26763"/>
<rect x="-0.0316906" y="0.0316906" width="1.14086" height="1.71129" rx="0.348597" transform="matrix(-1 0 0 1 26.7469 14.5776)" fill="#754FFE" stroke="#754FFE" stroke-width="0.0633813"/>
<rect x="-0.0316906" y="0.0316906" width="2.91554" height="1.71129" rx="0.348597" transform="matrix(-1 0 0 1 14.8311 15.5283)" fill="#754FFE" stroke="#754FFE" stroke-width="0.0633813"/>
<path d="M9.93383 16.3937C9.93383 16.7087 9.76357 16.9641 9.55354 16.9641C9.34351 16.9641 9.17325 16.7087 9.17325 16.3937C9.17325 16.0786 9.34351 15.8232 9.55354 15.8232C9.76357 15.8232 9.93383 16.0786 9.93383 16.3937Z" fill="#754FFE"/>
<path d="M16.9692 16.3937C16.9692 16.7087 17.1394 16.9641 17.3495 16.9641C17.5595 16.9641 17.7298 16.7087 17.7298 16.3937C17.7298 16.0786 17.5595 15.8232 17.3495 15.8232C17.1394 15.8232 16.9692 16.0786 16.9692 16.3937Z" fill="#754FFE"/>
<path d="M14.2755 20.1015C13.6417 20.6085 12.786 20.355 12.5642 20.1015C12.6275 20.4184 12.8684 20.8621 13.4515 20.8621C14.0346 20.8621 14.2438 20.355 14.2755 20.1015Z" fill="#754FFE"/>
<path fill-rule="evenodd" clip-rule="evenodd" d="M12.1313 22.4111C12.1576 22.2915 12.276 22.2158 12.3957 22.2422L14.6348 22.7351C14.7545 22.7615 14.8301 22.8798 14.8037 22.9995C14.7774 23.1191 14.6591 23.1948 14.5394 23.1684L12.3003 22.6754C12.1806 22.6491 12.105 22.5308 12.1313 22.4111Z" fill="#754FFE"/>
<path d="M13.4198 27.6755C9.00848 27.7262 5.77179 23.6614 4.70487 21.6226C4.54642 21.3198 4.41967 21.274 4.3246 21.3374C4.17248 21.4388 4.28233 21.6438 4.32458 21.7494C4.85698 22.9917 5.58164 24.0417 5.87742 24.4114C4.83797 26.1354 4.4936 27.8551 4.45134 28.4995C6.17531 26.8009 7.91619 26.8833 8.57113 27.1368C13.705 29.7988 16.5572 27.9291 18.1734 27.1368C19.4664 26.503 21.4798 27.7389 22.3249 28.4361C22.2235 26.8643 21.3742 25.1403 20.9622 24.4748C21.6277 23.5874 22.1664 22.51 22.4517 21.9712C22.6798 21.5402 22.6101 21.3691 22.5467 21.3374C22.3946 21.2614 22.2087 21.4959 22.1348 21.6226C21.6594 22.4149 18.934 27.6122 13.4198 27.6755Z" fill="#754FFE"/>
<path d="M45.2727 9.21871H49.6477C49.0909 5.19172 45.5412 2.35791 40.9375 2.35791C35.5582 2.35791 31.4119 6.23575 31.4119 12.838C31.4119 19.2812 35.2898 23.2784 41.027 23.2784C46.1676 23.2784 49.8366 20.0269 49.8366 14.6676V12.1022H41.3153V15.3437H45.6903C45.6307 17.8693 43.9105 19.4701 41.0469 19.4701C37.8153 19.4701 35.777 17.0539 35.777 12.7983C35.777 8.56246 37.8949 6.16615 41.0071 6.16615C43.2244 6.16615 44.7258 7.30962 45.2727 9.21871Z" fill="#18113C"/>
<path d="M58.8313 23.2983C62.6098 23.2983 65.1552 21.4588 65.7518 18.625L61.8342 18.3664C61.4066 19.5298 60.3129 20.1363 58.9009 20.1363C56.783 20.1363 55.4407 18.7343 55.4407 16.4573V16.4474H65.8413V15.284C65.8413 10.0937 62.6992 7.52837 58.6623 7.52837C54.168 7.52837 51.2546 10.7201 51.2546 15.4332C51.2546 20.2755 54.1282 23.2983 58.8313 23.2983ZM55.4407 13.8224C55.5302 12.0823 56.8527 10.6903 58.7319 10.6903C60.5714 10.6903 61.8441 12.0028 61.8541 13.8224H55.4407Z" fill="#18113C"/>
<path d="M74.4457 23.2983C78.2241 23.2983 80.7696 21.4588 81.3662 18.625L77.4486 18.3664C77.021 19.5298 75.9273 20.1363 74.5153 20.1363C72.3974 20.1363 71.0551 18.7343 71.0551 16.4573V16.4474H81.4557V15.284C81.4557 10.0937 78.3136 7.52837 74.2767 7.52837C69.7824 7.52837 66.869 10.7201 66.869 15.4332C66.869 20.2755 69.7426 23.2983 74.4457 23.2983ZM71.0551 13.8224C71.1446 12.0823 72.467 10.6903 74.3463 10.6903C76.1858 10.6903 77.4585 12.0028 77.4684 13.8224H71.0551Z" fill="#18113C"/>
<path d="M83.0999 23H87.3357V18.1477L88.4791 16.8451L92.6453 23H97.607L91.651 14.3394L97.3186 7.72723H92.4564L87.5644 13.5241H87.3357V2.63632H83.0999V23Z" fill="#18113C"/>
<path d="M110.984 12.0823C110.606 9.26842 108.339 7.52837 104.481 7.52837C100.574 7.52837 97.9983 9.33802 98.0083 12.2812C97.9983 14.5681 99.4401 16.0497 102.423 16.6463L105.068 17.1733C106.4 17.4417 107.007 17.9289 107.027 18.6946C107.007 19.5994 106.022 20.2457 104.541 20.2457C103.03 20.2457 102.025 19.5994 101.767 18.3565L97.6006 18.5752C97.9983 21.4985 100.484 23.2983 104.531 23.2983C108.488 23.2983 111.322 21.2798 111.332 18.267C111.322 16.0596 109.88 14.7372 106.917 14.1306L104.153 13.5738C102.731 13.2656 102.204 12.7784 102.214 12.0426C102.204 11.1278 103.238 10.5312 104.551 10.5312C106.022 10.5312 106.897 11.3366 107.106 12.321L110.984 12.0823Z" fill="#18113C"/>
</svg>
